<svg data-v-fde0c5aa="" xmlns="http://www.w3.org/2000/svg" viewBox="0 0 250 100" class="iconLeft"><!---->
    <defs data-v-fde0c5aa=""><!---->
    </defs>
    <rect data-v-fde0c5aa="" fill="transparent" x="0" y="0" width="250px" height="100px"
        class="logo-background-square"></rect>
    <defs data-v-fde0c5aa=""><!---->
    </defs>
    <g data-v-fde0c5aa="" id="83e9120d-bf85-4aaa-92a1-bed0736a67a0" fill="#505050"
        transform="matrix(4.177253246307373,0,0,4.177253246307373,140.77386262177708,13.30282812775079)">
        <path
            d="M6.73 14.18L7.55 14.18L4.35 3.51L3.50 3.51L0.32 14.18L1.08 14.18L2.03 10.86L5.77 10.86ZM3.91 4.37L5.59 10.21L2.23 10.21ZM8.99 5.98L8.99 14.18L9.67 14.18L9.67 8.67C9.67 7.29 10.53 6.57 11.68 6.57C11.86 6.57 12.00 6.58 12.12 6.59L12.12 5.88C12.03 5.87 11.86 5.85 11.72 5.85C10.70 5.85 10.00 6.41 9.67 6.97L9.60 5.98ZM14.21 5.98L13.52 5.98L13.52 14.18L14.21 14.18ZM14.22 3.22L13.51 3.22L13.51 4.14L14.22 4.14ZM21.36 14.18L21.36 8.43C21.36 6.55 20.50 5.81 18.93 5.81C17.18 5.81 16.42 6.65 16.42 8.37L17.05 8.37C17.05 6.87 17.75 6.43 18.91 6.43C20.16 6.43 20.69 7.03 20.69 8.43L20.69 9.80C20.26 9.73 19.61 9.67 19.21 9.67C17.08 9.67 16.16 10.49 16.16 12.07C16.16 13.64 17.08 14.35 18.44 14.35C19.45 14.35 20.27 13.93 20.71 13.16L20.73 14.18ZM20.69 11.56C20.69 13.03 19.71 13.75 18.56 13.75C17.42 13.75 16.87 13.15 16.87 12.04C16.87 10.86 17.47 10.26 19.17 10.26C19.56 10.26 20.24 10.32 20.69 10.39Z"></path>
    </g>
    <defs data-v-fde0c5aa="">
        <linearGradient data-v-fde0c5aa="" gradientTransform="rotate(25)"
            id="8196689d-4605-4ada-8854-e39dccbd9541" x1="0%" y1="0%" x2="100%" y2="0%">
            <stop data-v-fde0c5aa="" offset="0%" stop-color="#01648B" stop-opacity="1"></stop>
            <stop data-v-fde0c5aa="" offset="100%" stop-color="#5BD0A4" stop-opacity="1"></stop>
        </linearGradient>
    </defs>
    <g data-v-fde0c5aa="" id="d7fac081-b5df-4e8f-86e5-94c1d0987335" stroke="none"
        fill="url(#8196689d-4605-4ada-8854-e39dccbd9541)"
        transform="matrix(3.722205638885498,0,0,3.722205638885498,10,-10.64470815286164)">
        <path
            d="M16 19.586l7.496-12.954H8.504zM7.496 12.414L0 25.368h14.992zM24.504 12.414l-7.496 12.954H32z"></path>
    </g><!---->
</svg>